# This file uses centimeters as units for non-parametric coordinates.

mtllib VoxelModeltest.mtl
g default
v 76.005555 200.904770 -2.445265
v 72.578248 198.960938 -8.002327
v 67.441735 197.658722 -11.725262
v 61.756273 197.199036 -13.039328
v 56.070832 197.658722 -11.725267
v 50.934320 198.960938 -8.002331
v 47.506990 200.904770 -2.445295
v 46.300103 203.195114 4.102808
v 47.506990 205.485641 10.650894
v 50.934297 207.429367 16.207912
v 56.070810 208.731628 19.930847
v 61.756273 209.191238 21.245014
v 67.441713 208.731628 19.930847
v 72.578225 207.429367 16.207912
v 76.005555 205.485641 10.650902
v 77.212442 203.195129 4.102816
v 76.005601 206.534241 -4.194399
v 72.679048 204.649780 -9.581940
v 67.697961 203.389786 -13.184143
v 61.756273 202.947159 -14.449478
v 55.814584 203.389786 -13.184143
v 50.833497 204.649780 -9.581932
v 47.506944 206.534225 -4.194422
v 46.339090 208.756134 2.157663
v 47.506944 210.977966 8.509727
v 50.833497 212.862488 13.897251
v 55.814584 214.122482 17.499424
v 61.756273 214.565125 18.764969
v 67.697961 214.122482 17.499424
v 72.679048 212.862488 13.897251
v 76.005601 210.977966 8.509727
v 77.173455 208.756134 2.157669
v 74.452584 212.519119 -5.319878
v 71.596765 210.891144 -9.974091
v 67.325952 209.804214 -13.081516
v 61.756273 209.423065 -14.171173
v 56.186616 209.804199 -13.081539
v 51.915826 210.891144 -9.974108
v 49.059961 212.519119 -5.319891
v 48.056108 214.440399 0.172823
v 49.059961 216.361649 5.665461
v 51.915780 217.989655 10.319744
v 56.186616 219.076660 13.427364
v 61.756273 219.457809 14.517021
v 67.325929 219.076660 13.427364
v 71.596719 217.989655 10.319744
v 74.452584 216.361664 5.665493
v 75.456437 214.440399 0.172840
v 70.467447 217.822113 -5.257269
v 68.520471 216.693069 -8.485060
v 65.596681 215.934189 -10.654579
v 61.756273 215.666046 -11.421301
v 57.915864 215.934189 -10.654581
v 54.992074 216.693054 -8.485073
v 53.045098 217.822113 -5.257269
v 52.364320 219.147400 -1.468351
v 53.045098 220.472702 2.320465
v 54.992074 221.601776 5.548399
v 57.915864 222.360687 7.718029
v 61.756273 222.628952 8.484863
v 65.596681 222.360687 7.718029
v 68.520471 221.601776 5.548399
v 70.467447 220.472702 2.320465
v 71.148225 219.147400 -1.468346
v 64.621873 221.383362 -3.708271
v 63.949205 220.996735 -4.813629
v 62.942796 220.737228 -5.555260
v 61.756273 220.645630 -5.817398
v 60.569749 220.737228 -5.555260
v 59.563340 220.996735 -4.813629
v 58.890672 221.383362 -3.708269
v 58.657472 221.838013 -2.408455
v 58.890672 222.292679 -1.108633
v 59.563340 222.679321 -0.003304
v 60.569749 222.938675 0.738382
v 61.756273 223.030411 1.000444
v 62.942796 222.938675 0.738382
v 63.949205 222.679321 -0.003304
v 64.621873 222.292679 -1.108633
v 64.855073 221.838013 -2.408455
v 61.756273 221.837997 -2.408447
v 76.198404 192.955322 0.241385
v 72.771562 190.988968 -5.380199
v 67.651132 189.676865 -9.131321
v 61.756273 189.216858 -10.446445
v 55.861436 189.676865 -9.131361
v 50.741006 190.988968 -5.380207
v 47.314141 192.955307 0.241367
v 46.109170 195.277115 6.879122
v 47.314141 197.598938 13.516973
v 50.740983 199.565399 19.138863
v 55.861413 200.877518 22.890020
v 61.756273 201.337540 24.205164
v 67.651109 200.877518 22.890020
v 72.771539 199.565399 19.138863
v 76.198404 197.598953 13.516979
v 77.403375 195.277115 6.879128
v 73.122354 198.739319 -8.635899
v 73.487512 198.397583 -8.986433
v 73.612764 197.886215 -8.979126
v 77.379525 200.023544 -2.868748
v 77.210656 200.510757 -2.945051
v 76.727845 200.785385 -2.786573
v 67.717431 197.368073 -12.556221
v 67.906266 196.981506 -13.034632
v 67.969903 196.455078 -13.070587
v 61.756273 196.884247 -13.939386
v 61.756273 196.482407 -14.461767
v 61.756273 195.951050 -14.511509
v 55.795137 197.368057 -12.556240
v 55.606301 196.981491 -13.034681
v 55.542665 196.455078 -13.070583
v 50.390207 198.739319 -8.635899
v 50.025033 198.397583 -8.986433
v 49.899804 197.886215 -8.979134
v 46.784700 200.785385 -2.786583
v 46.301889 200.510757 -2.945068
v 46.133020 200.023544 -2.868750
v 45.517297 203.195206 4.102850
v 44.994355 202.999939 4.171263
v 44.809251 202.542114 4.331549
v 46.784700 205.605042 10.992277
v 46.301889 205.489136 11.287563
v 46.133020 205.060684 11.531891
v 50.390191 207.651001 16.841629
v 50.025033 207.602356 17.328920
v 49.899781 207.198044 17.642296
v 55.795114 209.022324 20.761953
v 55.606279 209.018326 21.377256
v 55.542642 208.629227 21.733934
v 61.756273 209.506165 22.145180
v 61.756273 209.517624 22.804434
v 61.756273 209.133255 23.174885
v 67.717408 209.022324 20.761953
v 67.906244 209.018326 21.377256
v 67.969880 208.629227 21.733934
v 73.122338 207.651001 16.841629
v 73.487512 207.602356 17.328920
v 73.612741 207.198044 17.642296
v 76.727845 205.605042 10.992277
v 77.210656 205.489136 11.287563
v 77.379525 205.060699 11.531895
v 77.995248 203.195221 4.102856
v 78.518190 202.999939 4.171268
v 78.703294 202.542114 4.331554
vt 0.680464 0.533304
vt 0.658500 0.470515
vt 0.722778 0.452667
vt 0.744071 0.513541
vt 0.643787 0.428450
vt 0.708542 0.411966
vt 0.793299 0.448236
vt 0.811694 0.500824
vt 0.706342 0.607291
vt 0.769176 0.585313
vt 0.781018 0.413126
vt 0.858855 0.465061
vt 0.871612 0.501531
vt 0.833402 0.562886
vt 0.732223 0.681277
vt 0.794280 0.657084
vt 0.886587 0.544343
vt 0.855111 0.624948
vt 0.754185 0.744066
vt 0.815573 0.717958
vt 0.901561 0.587152
vt 0.873505 0.677536
vt 0.768899 0.786131
vt 0.829810 0.758659
vt 0.914318 0.623624
vt 0.885787 0.712649
vt 0.382348 0.746520
vt 0.404311 0.683731
vt 0.467918 0.703494
vt 0.446626 0.764368
vt 0.430190 0.609744
vt 0.493023 0.631723
vt 0.535541 0.716211
vt 0.517147 0.768799
vt 0.367634 0.788585
vt 0.432389 0.805069
vt 0.456070 0.535758
vt 0.518128 0.559951
vt 0.557250 0.654149
vt 0.595460 0.715504
vt 0.582702 0.751974
vt 0.504865 0.803910
vt 0.478032 0.472969
vt 0.539421 0.499077
vt 0.578958 0.592088
vt 0.610434 0.672693
vt 0.492746 0.430904
vt 0.553658 0.458376
vt 0.597353 0.539499
vt 0.625409 0.629883
vt 0.609635 0.504387
vt 0.638166 0.593411
vt 0.424719 0.152404
vt 0.402501 0.088886
vt 0.480433 0.048221
vt 0.504583 0.117262
vt 0.387676 0.046502
vt 0.464263 0.001992
vt 0.486211 0.048139
vt 0.510088 0.116400
vt 0.450953 0.227403
vt 0.533040 0.198618
vt 0.470211 0.002398
vt 0.538213 0.196807
vt 0.477187 0.302404
vt 0.561497 0.279975
vt 0.566338 0.277214
vt 0.499406 0.365926
vt 0.585647 0.349016
vt 0.590215 0.345475
vt 0.514232 0.408310
vt 0.601818 0.395247
vt 0.606214 0.391217
vt 0.627477 0.321416
vt 0.649694 0.257898
vt 0.729558 0.293039
vt 0.705408 0.362080
vt 0.675928 0.182899
vt 0.758015 0.211684
vt 0.711186 0.362163
vt 0.735063 0.293902
vt 0.612651 0.363800
vt 0.689238 0.408309
vt 0.702163 0.107898
vt 0.786472 0.130327
vt 0.763188 0.213495
vt 0.695186 0.407904
vt 0.724382 0.044376
vt 0.810622 0.061286
vt 0.791314 0.133088
vt 0.739207 0.001992
vt 0.826793 0.015055
vt 0.815191 0.064827
vt 0.831190 0.019085
vt 0.139639 0.526326
vt 0.187895 0.491213
vt 0.207434 0.555723
vt 0.174398 0.580237
vt 0.250827 0.478901
vt 0.250827 0.547058
vt 0.237420 0.634585
vt 0.226049 0.642966
vt 0.183692 0.445203
vt 0.250827 0.430904
vt 0.313758 0.491213
vt 0.294219 0.555723
vt 0.250827 0.631624
vt 0.250827 0.670141
vt 0.152399 0.616710
vt 0.218448 0.655455
vt 0.317961 0.445203
vt 0.362013 0.526326
vt 0.327255 0.580237
vt 0.264233 0.634585
vt 0.144707 0.659519
vt 0.215813 0.670142
vt 0.275604 0.642966
vt 0.152399 0.702330
vt 0.218448 0.684828
vt 0.349254 0.616710
vt 0.283205 0.655455
vt 0.174398 0.738801
vt 0.226049 0.697317
vt 0.356946 0.659519
vt 0.285840 0.670142
vt 0.207434 0.763314
vt 0.237420 0.705697
vt 0.349254 0.702330
vt 0.283205 0.684828
vt 0.250827 0.771977
vt 0.250827 0.708659
vt 0.327255 0.738801
vt 0.275604 0.697317
vt 0.294219 0.763314
vt 0.264233 0.705697
vt 0.323768 0.365382
vt 0.319642 0.361421
vt 0.360380 0.295330
vt 0.365836 0.297120
vt 0.260706 0.411122
vt 0.258572 0.405716
vt 0.313494 0.354262
vt 0.352219 0.291473
vt 0.374701 0.217486
vt 0.380609 0.216713
vt 0.191217 0.427247
vt 0.191217 0.421345
vt 0.255457 0.396327
vt 0.365856 0.217487
vt 0.360380 0.139643
vt 0.365836 0.136306
vt 0.121729 0.411123
vt 0.123863 0.405717
vt 0.191217 0.411175
vt 0.352219 0.143500
vt 0.319642 0.073551
vt 0.323768 0.068045
vt 0.058666 0.365382
vt 0.062793 0.361421
vt 0.126978 0.396328
vt 0.313494 0.080712
vt 0.258572 0.029256
vt 0.260706 0.022303
vt 0.016599 0.297120
vt 0.022054 0.295330
vt 0.068940 0.354262
vt 0.255457 0.038646
vt 0.191217 0.013627
vt 0.191217 0.006178
vt 0.001825 0.216713
vt 0.007734 0.217486
vt 0.030215 0.291474
vt 0.191217 0.023798
vt 0.123862 0.029256
vt 0.121729 0.022303
vt 0.191217 0.001992
vt 0.261425 0.018273
vt 0.016599 0.136306
vt 0.022054 0.139643
vt 0.016579 0.217487
vt 0.126977 0.038646
vt 0.062792 0.073551
vt 0.058666 0.068045
vt 0.121010 0.018273
vt 0.030215 0.143500
vt 0.068940 0.080712
vt 0.216893 0.822581
vt 0.222087 0.886821
vt 0.157140 0.886821
vt 0.152138 0.819686
vt 0.216893 0.951061
vt 0.152138 0.953956
vt 0.083969 0.886821
vt 0.079662 0.823890
vt 0.079662 0.949753
vt 0.013429 0.886821
vt 0.010400 0.843429
vt 0.010400 0.930214
vt 0.067381 0.775634
vt 0.001825 0.810393
vt 0.067381 0.998008
vt 0.001825 0.963250
vt 0.423386 0.940100
vt 0.428579 0.875860
vt 0.489299 0.875860
vt 0.484297 0.942995
vt 0.423386 0.811621
vt 0.484297 0.808726
vt 0.323397 0.945539
vt 0.328595 0.878933
vt 0.416678 0.878933
vt 0.410983 0.949140
vt 0.323397 0.812327
vt 0.410983 0.808726
vt 0.228765 0.776353
vt 0.234713 0.775634
vt 0.240408 0.845842
vt 0.234404 0.845842
vt 0.311299 0.779236
vt 0.316497 0.845842
vt 0.234713 0.916049
vt 0.228765 0.915330
vt 0.311299 0.912447
vn 0.939131 -0.101689 -0.328164
vn 0.748522 -0.189542 -0.635444
vn 0.742925 -0.058348 -0.666827
vn 0.930442 0.025270 -0.365567
vn 0.424340 -0.236829 -0.873984
vn 0.417403 -0.100096 -0.903192
vn 0.000000 -0.247391 -0.968916
vn 0.000001 -0.106240 -0.994341
vn -0.424341 -0.236830 -0.873983
vn -0.417404 -0.100097 -0.903191
vn -0.748520 -0.189543 -0.635445
vn -0.742925 -0.058348 -0.666827
vn -0.939131 -0.101690 -0.328164
vn -0.930441 0.025270 -0.365568
vn -0.999980 0.006010 -0.002103
vn -0.990487 0.129879 -0.045459
vn -0.939131 0.125030 0.320001
vn -0.930483 0.247448 0.270131
vn -0.748520 0.247863 0.615046
vn -0.742997 0.369706 0.557918
vn -0.424348 0.359561 0.831050
vn -0.417479 0.484295 0.768876
vn -0.000000 0.410472 0.911873
vn -0.000000 0.536280 0.844040
vn 0.424348 0.359560 0.831051
vn 0.417479 0.484294 0.768876
vn 0.748519 0.247861 0.615048
vn 0.742997 0.369706 0.557919
vn 0.939131 0.125030 0.320002
vn 0.930483 0.247449 0.270132
vn 0.999980 0.006010 -0.002103
vn 0.990487 0.129879 -0.045459
vn 0.669339 0.252551 -0.698716
vn 0.839861 0.327687 -0.432730
vn 0.367535 0.207469 -0.906573
vn 0.000001 0.197012 -0.980401
vn -0.367535 0.207468 -0.906573
vn -0.669338 0.252551 -0.698717
vn -0.839860 0.327687 -0.432731
vn -0.895090 0.420881 -0.147216
vn -0.840017 0.525676 0.134298
vn -0.669594 0.632488 0.389363
vn -0.367748 0.726668 0.580272
vn -0.000000 0.764481 0.644646
vn 0.367749 0.726667 0.580272
vn 0.669592 0.632488 0.389364
vn 0.840016 0.525677 0.134300
vn 0.895090 0.420881 -0.147217
vn 0.488702 0.586153 -0.646216
vn 0.616145 0.642655 -0.455367
vn 0.264484 0.541685 -0.797888
vn 0.000001 0.525094 -0.851044
vn -0.264484 0.541684 -0.797889
vn -0.488703 0.586152 -0.646217
vn -0.616144 0.642655 -0.455369
vn -0.658061 0.710752 -0.248571
vn -0.616291 0.786271 -0.044319
vn -0.488935 0.860962 0.140309
vn -0.264665 0.920693 0.286840
vn -0.000000 0.940845 0.338837
vn 0.264666 0.920693 0.286839
vn 0.488935 0.860962 0.140309
vn 0.616290 0.786271 -0.044319
vn 0.658061 0.710751 -0.248571
vn 0.302722 0.783921 -0.542058
vn 0.385056 0.818075 -0.427182
vn 0.163310 0.758758 -0.630568
vn 0.000000 0.748209 -0.663463
vn -0.163310 0.758757 -0.630569
vn -0.302723 0.783921 -0.542059
vn -0.385055 0.818075 -0.427183
vn -0.412569 0.859845 -0.300756
vn -0.385085 0.905974 -0.175843
vn -0.302770 0.950865 -0.064702
vn -0.163345 0.986362 0.020223
vn 0.000000 0.998619 0.052531
vn 0.163345 0.986362 0.020219
vn 0.302770 0.950865 -0.064706
vn 0.385085 0.905974 -0.175845
vn 0.412569 0.859845 -0.300756
vn -0.000004 0.943923 -0.330166
vn -0.000034 0.943912 -0.330197
vn -0.000000 0.943921 -0.330171
vn 0.000012 0.943918 -0.330181
vn 0.000000 0.943927 -0.330154
vn -0.000012 0.943918 -0.330181
vn 0.000034 0.943912 -0.330197
vn 0.000004 0.943923 -0.330166
vn 0.000005 0.943923 -0.330166
vn 0.000004 0.943918 -0.330181
vn 0.000029 0.943924 -0.330162
vn -0.000006 0.943925 -0.330159
vn 0.000000 0.943921 -0.330171
vn 0.000006 0.943925 -0.330159
vn -0.000029 0.943926 -0.330156
vn -0.000004 0.943920 -0.330174
vn -0.000005 0.943923 -0.330166
vn 0.745129 -0.348410 -0.568676
vn 0.702344 0.162084 -0.693139
vn 0.878204 0.239514 -0.413994
vn 0.931651 -0.239137 -0.273570
vn 0.253035 0.811074 -0.527382
vn 0.129453 0.894357 -0.428215
vn 0.166918 0.909827 -0.379937
vn 0.336880 0.838815 -0.427671
vn 0.928650 -0.267602 -0.256901
vn 0.747185 -0.376918 -0.547401
vn 0.437752 -0.469454 -0.766803
vn 0.429957 -0.439442 -0.788687
vn 0.000002 -0.513778 -0.857923
vn 0.000001 -0.481122 -0.876654
vn -0.437751 -0.469452 -0.766804
vn -0.429957 -0.439443 -0.788687
vn -0.747184 -0.376917 -0.547402
vn -0.745128 -0.348411 -0.568677
vn -0.928650 -0.267602 -0.256902
vn -0.931650 -0.239138 -0.273570
vn -0.986211 -0.156188 0.054718
vn -0.991023 -0.126220 0.044068
vn -0.928681 -0.048592 0.367683
vn -0.931769 -0.016044 0.362698
vn -0.747235 0.047464 0.662862
vn -0.745332 0.082940 0.661515
vn -0.437802 0.112216 0.892041
vn -0.430130 0.149280 0.890339
vn 0.000000 0.134504 0.990913
vn 0.000000 0.171677 0.985153
vn 0.437802 0.112216 0.892041
vn 0.430131 0.149280 0.890339
vn 0.747235 0.047465 0.662863
vn 0.745331 0.082939 0.661515
vn 0.928680 -0.048591 0.367685
vn 0.931768 -0.016044 0.362699
vn 0.986211 -0.156188 0.054718
vn 0.991023 -0.126220 0.044068
vn -0.000001 0.943920 -0.330175
vn -0.000026 0.943921 -0.330172
vn -0.000004 0.943924 -0.330162
vn 0.073173 0.884619 -0.460538
vn -0.000001 0.943928 -0.330152
vn 0.000000 0.880383 -0.474264
vn 0.000001 0.943923 -0.330166
vn -0.073172 0.884621 -0.460533
vn -0.000003 0.943918 -0.330180
vn -0.129452 0.894361 -0.428206
vn 0.000021 0.943922 -0.330170
vn -0.166917 0.909830 -0.379932
vn 0.000039 0.943921 -0.330171
vn -0.179819 0.928534 -0.324792
vn 0.000012 0.943922 -0.330170
vn -0.166907 0.948278 -0.270019
vn -0.000018 0.943927 -0.330155
vn -0.129436 0.966273 -0.222629
vn -0.000007 0.943921 -0.330172
vn -0.073160 0.978803 -0.191293
vn 0.000000 0.943914 -0.330193
vn 0.000000 0.984043 -0.177930
vn 0.000007 0.943922 -0.330169
vn 0.073160 0.978804 -0.191286
vn 0.000018 0.943928 -0.330151
vn 0.129435 0.966274 -0.222625
vn -0.000014 0.943921 -0.330170
vn 0.166909 0.948279 -0.270017
vn -0.000043 0.943920 -0.330175
vn 0.179823 0.928533 -0.324792
vn 0.137898 0.796346 -0.588911
vn 0.411641 0.111699 -0.904475
vn 0.000001 0.792559 -0.609795
vn 0.000003 0.094066 -0.995566
vn -0.137892 0.796355 -0.588902
vn -0.411645 0.111652 -0.904479
vn -0.253030 0.811093 -0.527356
vn -0.702353 0.162051 -0.693137
vn -0.336871 0.838822 -0.427662
vn -0.878206 0.239500 -0.413997
vn -0.367421 0.877902 -0.307067
vn -0.934544 0.335885 -0.117514
vn -0.336822 0.922520 -0.188437
vn -0.878155 0.445488 0.174310
vn -0.252956 0.962977 -0.093213
vn -0.702255 0.559112 0.440717
vn -0.137841 0.989801 -0.035960
vn -0.411572 0.651576 0.637226
vn -0.000000 0.999851 -0.017291
vn 0.000001 0.694642 0.719355
vn 0.137841 0.989802 -0.035944
vn 0.411578 0.651579 0.637220
vn 0.252954 0.962978 -0.093212
vn 0.702259 0.559104 0.440720
vn 0.336825 0.922519 -0.188433
vn 0.878157 0.445486 0.174307
vn 0.367434 0.877897 -0.307064
vn 0.934541 0.335889 -0.117519
s 1
g pCylinder5 hatGroup1
usemtl initialShadingGroup
f 1/1/1 2/2/2 18/3/3 17/4/4
f 2/2/2 3/5/5 19/6/6 18/3/3
f 3/187/5 4/188/7 20/189/8 19/190/6
f 4/188/7 5/191/9 21/192/10 20/189/8
f 5/35/9 6/27/11 22/30/12 21/36/10
f 6/27/11 7/28/13 23/29/14 22/30/12
f 7/28/13 8/31/15 24/32/16 23/29/14
f 8/31/15 9/37/17 25/38/18 24/32/16
f 9/37/17 10/43/19 26/44/20 25/38/18
f 10/43/19 11/47/21 27/48/22 26/44/20
f 11/203/21 12/204/23 28/205/24 27/206/22
f 12/204/23 13/207/25 29/208/26 28/205/24
f 13/23/25 14/19/27 30/20/28 29/24/26
f 14/19/27 15/15/29 31/16/30 30/20/28
f 15/15/29 16/9/31 32/10/32 31/16/30
f 16/9/31 1/1/1 17/4/4 32/10/32
f 17/4/4 18/3/3 34/7/33 33/8/34
f 18/3/3 19/6/6 35/11/35 34/7/33
f 19/190/6 20/189/8 36/193/36 35/194/35
f 20/189/8 21/192/10 37/195/37 36/193/36
f 21/36/10 22/30/12 38/34/38 37/42/37
f 22/30/12 23/29/14 39/33/39 38/34/38
f 23/29/14 24/32/16 40/39/40 39/33/39
f 24/32/16 25/38/18 41/45/41 40/39/40
f 25/38/18 26/44/20 42/49/42 41/45/41
f 26/44/20 27/48/22 43/51/43 42/49/42
f 27/103/22 28/104/24 44/99/44 43/96/43
f 28/104/24 29/111/26 45/105/45 44/99/44
f 29/24/26 30/20/28 46/22/46 45/26/45
f 30/20/28 31/16/30 47/18/47 46/22/46
f 31/16/30 32/10/32 48/14/48 47/18/47
f 32/10/32 17/4/4 33/8/34 48/14/48
f 33/8/34 34/7/33 50/12/49 49/13/50
f 34/199/33 35/194/35 51/197/51 50/200/49
f 35/194/35 36/193/36 52/196/52 51/197/51
f 36/193/36 37/195/37 53/198/53 52/196/52
f 37/195/37 38/201/38 54/202/54 53/198/53
f 38/34/38 39/33/39 55/40/55 54/41/54
f 39/33/39 40/39/40 56/46/56 55/40/55
f 40/39/40 41/45/41 57/50/57 56/46/56
f 41/45/41 42/49/42 58/52/58 57/50/57
f 42/95/42 43/96/43 59/97/59 58/98/58
f 43/96/43 44/99/44 60/100/60 59/97/59
f 44/99/44 45/105/45 61/106/61 60/100/60
f 45/105/45 46/112/46 62/113/62 61/106/61
f 46/22/46 47/18/47 63/21/63 62/25/62
f 47/18/47 48/14/48 64/17/64 63/21/63
f 48/14/48 33/8/34 49/13/50 64/17/64
f 49/128/50 50/132/49 66/133/65 65/129/66
f 50/132/49 51/134/51 67/135/67 66/133/65
f 51/134/51 52/130/52 68/131/68 67/135/67
f 52/130/52 53/126/53 69/127/69 68/131/68
f 53/126/53 54/122/54 70/123/70 69/127/69
f 54/122/54 55/118/55 71/119/71 70/123/70
f 55/118/55 56/115/56 72/116/72 71/119/71
f 56/115/56 57/109/57 73/110/73 72/116/72
f 57/109/57 58/98/58 74/102/74 73/110/73
f 58/98/58 59/97/59 75/101/75 74/102/74
f 59/97/59 60/100/60 76/107/76 75/101/75
f 60/100/60 61/106/61 77/114/77 76/107/76
f 61/106/61 62/113/62 78/117/78 77/114/77
f 62/113/62 63/120/63 79/121/79 78/117/78
f 63/120/63 64/124/64 80/125/80 79/121/79
f 64/124/64 49/128/50 65/129/66 80/125/80
s 2
f 65/129/81 66/133/82 81/108/83
f 66/133/82 67/135/84 81/108/83
f 67/135/84 68/131/85 81/108/83
f 68/131/85 69/127/86 81/108/83
f 69/127/86 70/123/87 81/108/83
f 70/123/87 71/119/88 81/108/83
f 71/119/88 72/116/89 81/108/83
f 72/116/89 73/110/90 81/108/83
f 73/110/90 74/102/91 81/108/83
f 74/102/91 75/101/92 81/108/83
f 75/101/92 76/107/93 81/108/83
f 76/107/93 77/114/94 81/108/83
f 77/114/94 78/117/95 81/108/83
f 78/117/95 79/121/96 81/108/83
f 79/121/96 80/125/97 81/108/83
f 80/125/97 65/129/81 81/108/83
s 3
f 100/55/98 99/59/99 102/60/100 101/56/101
s 4
f 99/136/102 98/137/103 103/138/104 102/139/105
s 3
f 82/53/106 83/54/107 100/55/98 101/56/101
f 83/54/107 84/57/108 106/58/109 100/55/98
f 84/219/108 85/220/110 109/217/111 106/216/109
f 85/220/110 86/223/112 112/221/113 109/217/111
f 86/82/112 87/74/114 115/77/115 112/83/113
f 87/74/114 88/75/116 118/76/117 115/77/115
f 88/75/116 89/78/118 121/79/119 118/76/117
f 89/78/118 90/84/120 124/85/121 121/79/119
f 90/84/120 91/88/122 127/89/123 124/85/121
f 91/88/122 92/91/124 130/92/125 127/89/123
f 92/209/124 93/210/126 133/211/127 130/212/125
f 93/210/126 94/213/128 136/214/129 133/211/127
f 94/71/128 95/68/130 139/69/131 136/72/129
f 95/68/130 96/65/132 142/66/133 139/69/131
f 96/65/132 97/61/134 145/62/135 142/66/133
f 97/61/134 82/53/106 101/56/101 145/62/135
s 4
f 2/142/136 1/143/137 103/138/104 98/137/103
f 3/148/138 2/142/136 98/137/103 104/141/139
f 4/154/140 3/148/138 104/141/139 107/147/141
f 5/160/142 4/154/140 107/147/141 110/153/143
f 6/166/144 5/160/142 110/153/143 113/159/145
f 7/172/146 6/166/144 113/159/145 116/165/147
f 8/180/148 7/172/146 116/165/147 119/171/149
f 9/185/150 8/180/148 119/171/149 122/179/151
f 10/186/152 9/185/150 122/179/151 125/182/153
f 11/181/154 10/186/152 125/182/153 128/174/155
f 12/173/156 11/181/154 128/174/155 131/168/157
f 13/167/158 12/173/156 131/168/157 134/162/159
f 14/161/160 13/167/158 134/162/159 137/156/161
f 15/155/162 14/161/160 137/156/161 140/150/163
f 16/149/164 15/155/162 140/150/163 143/144/165
f 1/143/137 16/149/164 143/144/165 103/138/104
f 98/137/103 99/136/102 105/140/166 104/141/139
s 3
f 99/59/99 100/55/98 106/58/109 105/63/167
s 4
f 104/141/139 105/140/166 108/146/168 107/147/141
s 3
f 105/215/167 106/216/109 109/217/111 108/218/169
s 4
f 107/147/141 108/146/168 111/152/170 110/153/143
s 3
f 108/218/169 109/217/111 112/221/113 111/222/171
s 4
f 110/153/143 111/152/170 114/158/172 113/159/145
s 3
f 111/87/171 112/83/113 115/77/115 114/80/173
s 4
f 113/159/145 114/158/172 117/164/174 116/165/147
s 3
f 114/80/173 115/77/115 118/76/117 117/81/175
s 4
f 116/165/147 117/164/174 120/170/176 119/171/149
s 3
f 117/81/175 118/76/117 121/79/119 120/86/177
s 4
f 119/171/149 120/170/176 123/178/178 122/179/151
s 3
f 120/86/177 121/79/119 124/85/121 123/90/179
s 4
f 122/179/151 123/178/178 126/183/180 125/182/153
s 3
f 123/90/179 124/85/121 127/89/123 126/93/181
s 4
f 125/182/153 126/183/180 129/175/182 128/174/155
s 3
f 126/93/181 127/89/123 130/92/125 129/94/183
s 4
f 128/174/155 129/175/182 132/169/184 131/168/157
s 3
f 129/175/183 130/184/125 133/176/127 132/169/185
s 4
f 131/168/157 132/169/184 135/163/186 134/162/159
s 3
f 132/169/185 133/176/127 136/177/129 135/163/187
s 4
f 134/162/159 135/163/186 138/157/188 137/156/161
s 3
f 135/73/187 136/72/129 139/69/131 138/70/189
s 4
f 137/156/161 138/157/188 141/151/190 140/150/163
s 3
f 138/70/189 139/69/131 142/66/133 141/67/191
s 4
f 140/150/163 141/151/190 144/145/192 143/144/165
s 3
f 141/67/191 142/66/133 145/62/135 144/64/193
f 101/56/101 102/60/100 144/64/193 145/62/135
s 4
f 102/139/105 103/138/104 143/144/165 144/145/192
